<?xml version="1.0" standalone="no"?>
<!DOCTYPE svg PUBLIC "-//W3C//DTD SVG 20010904//EN"
 "http://www.w3.org/TR/2001/REC-SVG-20010904/DTD/svg10.dtd">
<svg version="1.0" xmlns="http://www.w3.org/2000/svg"
 width="1920.000000pt" height="1920.000000pt" viewBox="0 0 1920.000000 1920.000000"
 preserveAspectRatio="xMidYMid meet">

<g transform="translate(0.000000,1920.000000) scale(0.100000,-0.100000)"
fill="#000000" stroke="none">
<path d="M12176 16649 c-484 -63 -1058 -315 -1511 -666 -612 -474 -1070 -1246
-1190 -2008 -21 -132 -30 -454 -16 -575 11 -102 27 -134 77 -160 36 -18 316
-19 444 -1 752 106 1469 573 1939 1266 402 591 615 1313 571 1930 -11 156 -15
172 -56 204 -22 18 -40 21 -108 20 -44 -1 -112 -6 -150 -10z"/>
<path d="M11820 13296 c-391 -51 -690 -139 -1370 -406 -465 -183 -623 -226
-799 -218 -176 9 -283 41 -803 244 -453 177 -668 247 -931 303 -608 131 -1384
3 -2024 -334 -343 -180 -602 -373 -883 -654 -290 -291 -483 -556 -679 -931
-206 -396 -362 -896 -440 -1411 -72 -476 -80 -1114 -20 -1654 146 -1319 650
-2712 1374 -3795 571 -854 1051 -1393 1470 -1650 266 -163 498 -237 780 -247
357 -13 618 50 1176 283 527 220 778 277 1204 277 226 0 368 -15 550 -58 191
-45 276 -76 755 -277 404 -170 725 -231 1077 -207 590 41 1102 374 1643 1069
173 222 495 679 640 910 303 480 595 1091 776 1624 57 168 64 217 38 255 -9
13 -63 45 -120 72 -203 94 -432 237 -629 393 -132 104 -400 375 -496 501 -261
342 -440 723 -529 1124 -60 271 -85 663 -61 941 39 435 183 860 423 1246 137
221 276 392 484 594 156 152 276 251 442 364 112 77 142 111 142 159 0 72
-296 434 -524 639 -514 463 -1151 743 -1901 834 -180 21 -628 27 -765 10z"/>
</g>
</svg>
